<?xml version="1.0" encoding="UTF-8" standalone="no"?>
<!-- Created with Inkscape (http://www.inkscape.org/) -->

<svg
   width="60.835915mm"
   height="14.482375mm"
   viewBox="0 0 60.835915 14.482375"
   version="1.1"
   id="svg1"
   sodipodi:docname="aspizumegatrends.svg"
   inkscape:version="1.4.2 (f4327f4, 2025-05-13)"
   xmlns:inkscape="http://www.inkscape.org/namespaces/inkscape"
   xmlns:sodipodi="http://sodipodi.sourceforge.net/DTD/sodipodi-0.dtd"
   xmlns="http://www.w3.org/2000/svg"
   xmlns:svg="http://www.w3.org/2000/svg">
  <sodipodi:namedview
     id="namedview1"
     pagecolor="#000000"
     bordercolor="#000000"
     borderopacity="0.25"
     inkscape:showpageshadow="2"
     inkscape:pageopacity="0.0"
     inkscape:pagecheckerboard="0"
     inkscape:deskcolor="#d1d1d1"
     inkscape:document-units="mm"
     inkscape:zoom="3.049528"
     inkscape:cx="161.5004"
     inkscape:cy="103.62259"
     inkscape:window-width="2880"
     inkscape:window-height="1527"
     inkscape:window-x="-11"
     inkscape:window-y="-11"
     inkscape:window-maximized="1"
     inkscape:current-layer="layer1" />
  <defs
     id="defs1" />
  <g
     id="layer1">
    <text
       xml:space="preserve"
       style="font-style:normal;font-variant:normal;font-weight:normal;font-stretch:normal;font-size:6.40743px;font-family:Georgia;-inkscape-font-specification:Georgia;text-align:start;writing-mode:lr-tb;direction:ltr;text-anchor:start;fill:#000000;stroke-width:1.06791"
       x="26.408276"
       y="4.4489088"
       id="text1" />
    <path
       d="M 32.805602,6.7785697 H 30.021631 V 6.4441164 q 0.367427,-0.023553 0.607668,-0.094212 0.244952,-0.070659 0.244952,-0.1742925 0,-0.042395 -0.0094,-0.1036335 -0.0094,-0.061238 -0.02826,-0.108344 L 30.280714,4.4656599 h -2.341173 q -0.131897,0.3297428 -0.216688,0.5746945 -0.08008,0.2449518 -0.146029,0.4522186 -0.06124,0.2025563 -0.08479,0.3297428 -0.02355,0.1271865 -0.02355,0.2072668 0,0.1884244 0.296768,0.2920579 0.296769,0.1036334 0.668907,0.1224759 v 0.3344533 h -2.51547 V 6.4441164 q 0.122476,-0.00942 0.30619,-0.051817 0.183713,-0.047106 0.301479,-0.1224758 0.188424,-0.1271865 0.292058,-0.2637942 0.103633,-0.1413183 0.202556,-0.3862701 0.504035,-1.257733 1.111704,-2.8263663 0.607669,-1.5686333 1.08344,-2.7933919971969 h 0.376849 L 31.821084,5.7657884 q 0.07066,0.1837139 0.160161,0.2967685 0.0895,0.1130547 0.249662,0.2213987 0.108344,0.065949 0.282637,0.1130546 0.174292,0.042395 0.292058,0.047106 z M 30.111132,4.0464156 29.098351,1.4555798 28.104412,4.0464156 Z"
       id="text2"
       style="font-size:9.64733px;font-family:Georgia;-inkscape-font-specification:Georgia;fill:#ffffff;stroke-width:1.60788"
       transform="scale(1.053651,0.94908086)"
       aria-label="A" />
    <path
       d="m 38.103549,4.9102325 q 0.169172,0.1194751 0.259947,0.2754564 0.09078,0.1559812 0.09078,0.3816563 0,0.4546688 -0.424994,0.7434001 -0.420866,0.2887312 -1.093427,0.2887312 -0.354848,0 -0.656057,-0.1028812 Q 35.982712,6.393714 35.854802,6.3074265 l -0.08252,0.2157189 h -0.30946 l -0.04127,-1.1383316 h 0.284704 q 0.03301,0.1294313 0.140289,0.3020064 0.10728,0.172575 0.259947,0.3119626 0.16092,0.1460249 0.383732,0.2455874 0.226937,0.099563 0.507515,0.099563 0.39611,0 0.610668,-0.1427062 0.21456,-0.146025 0.21456,-0.4148438 0,-0.1393875 -0.07014,-0.23895 Q 37.686809,5.4445513 37.554772,5.3682202 37.418608,5.2918888 37.220555,5.2321513 37.0225,5.1690951 36.779058,5.1093576 36.585129,5.0628951 36.345812,4.983245 36.110623,4.9002763 35.94145,4.7907575 35.759899,4.6746013 35.644368,4.505345 35.528836,4.3360887 35.528836,4.1070949 q 0,-0.4015688 0.371353,-0.6803439 0.371352,-0.278775 0.9944,-0.278775 0.239317,0 0.486885,0.049781 0.251694,0.049781 0.408489,0.119475 l 0.0949,-0.1725751 h 0.297083 l 0.0619,1.0520439 H 37.959135 Q 37.872484,3.8449136 37.583655,3.625876 37.298952,3.4035198 36.886337,3.4035198 q -0.338343,0 -0.532273,0.1360687 -0.193928,0.1360687 -0.193928,0.3285563 0,0.1493437 0.06189,0.2489063 0.06602,0.099562 0.193929,0.1692562 0.123784,0.066375 0.30946,0.1261126 0.189803,0.056419 0.466254,0.1294312 0.272326,0.069694 0.511642,0.1626188 0.243443,0.092925 0.400236,0.2057625 z m 4.683172,-1.2810377 q 0.243442,0.2323125 0.375479,0.5409564 0.136164,0.305325 0.136164,0.7002563 0,0.3882938 -0.16092,0.7102127 -0.16092,0.3186001 -0.424992,0.544275 -0.276452,0.2289939 -0.614796,0.3517876 -0.338345,0.1227937 -0.717949,0.1227937 -0.367227,0 -0.602417,-0.066375 -0.235191,-0.066375 -0.383733,-0.1559812 h -0.03301 v 0.9823501 q 0,0.1194751 0.05776,0.1991251 0.05776,0.07965 0.177424,0.1161562 0.09903,0.029869 0.280578,0.056418 0.185676,0.029868 0.305335,0.033188 V 7.9867143 H 38.908145 V 7.7643581 q 0.127912,-0.00664 0.247569,-0.016594 0.119658,-0.00996 0.214558,-0.033187 0.123786,-0.033188 0.1733,-0.1161563 0.04951,-0.082969 0.04951,-0.1958063 V 3.9212449 q 0,-0.099563 -0.06189,-0.1924876 -0.06188,-0.092925 -0.160921,-0.1493438 -0.07426,-0.039825 -0.206305,-0.059738 -0.132037,-0.023231 -0.255822,-0.029869 v -0.215718 l 1.386385,-0.073012 0.05776,0.039825 v 0.3683813 l 0.03301,0.00664 q 0.214558,-0.1991249 0.532272,-0.3318749 0.317712,-0.1327501 0.631299,-0.1327501 0.379606,0 0.693191,0.1294313 0.317714,0.1294313 0.544652,0.3484688 z m -0.67256,2.3529942 q 0.165044,-0.2057626 0.243441,-0.4779001 0.0784,-0.2721376 0.0784,-0.6073313 0,-0.2455875 -0.06602,-0.5011314 Q 42.303958,4.1402824 42.163674,3.9511136 42.023384,3.7586261 41.796446,3.6391511 41.569509,3.519676 41.251795,3.519676 q -0.305333,0 -0.519893,0.1095188 -0.21456,0.1062 -0.371353,0.2555438 v 1.9348315 q 0.03714,0.089606 0.119658,0.1858501 0.08665,0.096244 0.189802,0.1659376 0.12791,0.082969 0.276453,0.1360687 0.14854,0.049781 0.363099,0.049781 0.231065,0 0.445624,-0.096244 0.21456,-0.099563 0.358976,-0.2787745 z m 3.758916,0.5310001 H 43.904905 V 6.2941515 q 0.0949,-0.00664 0.19393,-0.013275 0.103153,-0.00664 0.177424,-0.02655 0.115531,-0.029868 0.169172,-0.1028812 0.05776,-0.076331 0.05776,-0.1958063 V 3.9345199 q 0,-0.1062001 -0.06189,-0.1924875 -0.05776,-0.089606 -0.165045,-0.1493438 -0.0784,-0.039825 -0.226938,-0.066375 -0.148542,-0.029868 -0.272326,-0.036507 V 3.2740885 l 1.435898,-0.073012 0.05777,0.046463 v 2.6682753 q 0,0.1161564 0.05364,0.1924876 0.05776,0.076331 0.177425,0.1128375 0.09078,0.029869 0.177423,0.049781 0.08664,0.016594 0.193929,0.023231 z m -0.519895,-4.603107 q 0,0.1891688 -0.156794,0.331875 -0.152667,0.1393875 -0.379604,0.1393875 -0.210434,0 -0.367227,-0.1327499 -0.152667,-0.1360689 -0.152667,-0.3086439 0,-0.1825313 0.152667,-0.3186 0.156793,-0.1360688 0.367227,-0.1360688 0.235189,0 0.383731,0.1294313 0.152667,0.1261125 0.152667,0.2953688 z m 4.241675,4.603107 H 46.302196 V 6.3372952 l 2.302387,-2.8275753 h -0.569407 q -0.358974,0 -0.561156,0.00996 -0.202181,0.00996 -0.371353,0.066375 -0.115532,0.036507 -0.218686,0.2090814 -0.09902,0.172575 -0.173297,0.45135 H 46.458989 V 3.2409011 H 49.5701 v 0.1360687 l -2.339523,2.8674004 q 0.148541,0.00332 0.325967,0.00664 0.177423,0 0.38373,0 0.165046,0 0.34247,-0.00332 0.18155,-0.00332 0.462128,-0.016594 0.165045,-0.00664 0.247569,-0.089606 0.08664,-0.082969 0.132036,-0.1891689 0.04539,-0.096244 0.10728,-0.2655 0.06602,-0.1692562 0.115531,-0.3285562 h 0.247569 z m 4.88948,-0.059738 -1.324492,0.073012 -0.06189,-0.046462 V 6.0651577 h -0.02476 q -0.09903,0.082969 -0.222813,0.1792125 -0.123782,0.092925 -0.284702,0.1692563 -0.185677,0.089606 -0.358976,0.1360688 -0.173297,0.046462 -0.49101,0.046462 -0.540525,0 -0.825229,-0.2820938 -0.28057,-0.2854126 -0.28057,-0.8263689 V 3.9212444 q 0,-0.119475 -0.05777,-0.199125 -0.05364,-0.082969 -0.160919,-0.1427063 -0.07427,-0.039825 -0.185676,-0.056418 -0.111408,-0.019913 -0.235192,-0.02655 V 3.280726 l 1.357501,-0.079651 0.06188,0.046463 v 2.2733441 q 0,0.3551062 0.198056,0.5343188 0.198055,0.1792126 0.474506,0.1792126 0.226937,0 0.404362,-0.056419 0.177425,-0.056419 0.297082,-0.13275 0.111406,-0.069694 0.193929,-0.1460251 0.08664,-0.079651 0.132036,-0.146025 V 3.8980136 q 0,-0.1095187 -0.05776,-0.1924875 -0.05776,-0.086288 -0.16092,-0.1460249 -0.07427,-0.039825 -0.222812,-0.046463 -0.144415,-0.00996 -0.325965,-0.016594 V 3.280726 l 1.477159,-0.079651 0.06189,0.046463 v 2.5985817 q 0,0.1128375 0.05776,0.1924875 0.05776,0.07965 0.160918,0.1360688 0.07427,0.036507 0.177426,0.049781 0.103153,0.00996 0.226938,0.013276 z"
       id="text3"
       style="font-size:8.46437px;font-family:Georgia;-inkscape-font-specification:Georgia;fill:#ffffff;stroke-width:1.2631"
       aria-label="spizu" />
    <path
       d="M 34.565653,13.244232 H 31.977621 V 12.95117 q 0.14034,-0.0041 0.359105,-0.02889 0.222893,-0.02477 0.305446,-0.07017 0.127956,-0.07842 0.185743,-0.177488 0.06192,-0.103191 0.06192,-0.255914 V 8.1589776 h -0.06192 L 30.830137,13.149296 H 30.623755 L 28.720912,8.0557866 h -0.05366 v 3.4961124 q 0,0.5077 0.06191,0.771869 0.06604,0.264169 0.198127,0.379743 0.09081,0.08668 0.375615,0.165106 0.284808,0.07842 0.371488,0.08255 v 0.293062 H 27.309258 V 12.95117 q 0.185744,-0.01651 0.387999,-0.06191 0.206382,-0.0454 0.317828,-0.136212 0.144468,-0.115574 0.198127,-0.354977 0.05366,-0.239404 0.05366,-0.800763 V 8.6006353 q 0,-0.2600414 -0.06191,-0.4251471 Q 28.143042,8.0103825 28.027468,7.9071915 27.899511,7.7957452 27.713767,7.7420858 27.528023,7.6884265 27.346407,7.6801712 V 7.3871086 h 1.997779 L 31.020008,11.778919 32.4523,8.1053183 q 0.07842,-0.2022544 0.132085,-0.4210195 0.05779,-0.2228926 0.06191,-0.2971902 h 1.911098 v 0.2930626 q -0.115574,0.00413 -0.29719,0.037149 -0.177489,0.033021 -0.260041,0.061915 -0.14034,0.049532 -0.189872,0.1651057 -0.04953,0.1155739 -0.04953,0.2517861 v 4.222578 q 0,0.144467 0.04953,0.243531 0.04953,0.09906 0.189872,0.173361 0.0743,0.04128 0.264169,0.07842 0.189871,0.03302 0.301318,0.03715 z"
       id="text4"
       style="font-size:8.45341px;font-family:Georgia;-inkscape-font-specification:Georgia;fill:#ffffff;stroke-width:1.40891"
       aria-label="M" />
    <path
       d="m 37.354917,12.278025 q -0.185526,0.384784 -0.496731,0.613045 -0.311205,0.228262 -0.715173,0.228262 -0.35609,0 -0.625401,-0.136957 -0.26632,-0.136957 -0.439876,-0.371741 -0.173557,-0.234782 -0.260335,-0.547826 -0.08379,-0.313045 -0.08379,-0.661958 0,-0.313044 0.08977,-0.613045 0.09276,-0.303261 0.269311,-0.544566 0.170565,-0.231522 0.421922,-0.371739 0.25435,-0.1434789 0.568547,-0.1434789 0.323175,0 0.553586,0.1108699 0.230411,0.1108691 0.374044,0.303261 0.137648,0.182609 0.20348,0.430436 0.06882,0.247825 0.06882,0.538044 v 0.215218 h -1.954007 q 0,0.316304 0.05386,0.573913 0.05685,0.257609 0.176549,0.453262 0.116701,0.189131 0.30522,0.300001 0.188518,0.107612 0.448853,0.107612 0.266319,0 0.45783,-0.133698 0.194503,-0.136957 0.374044,-0.489131 z m -0.66131,-1.226088 q 0,-0.18261 -0.02992,-0.391306 -0.02693,-0.208695 -0.08977,-0.348913 -0.06882,-0.15 -0.188518,-0.244566 -0.119694,-0.094569 -0.308212,-0.094569 -0.314197,0 -0.523662,0.286957 -0.206473,0.283695 -0.224427,0.792392 z m 3.530976,1.650002 q 0.119695,0.123913 0.188519,0.280436 0.06882,0.156521 0.06882,0.388043 0,0.231522 -0.09276,0.433697 -0.09276,0.205434 -0.281281,0.355434 -0.200488,0.153262 -0.478777,0.238045 -0.278289,0.08478 -0.688241,0.08478 -0.670287,0 -1.002439,-0.215217 -0.332151,-0.211958 -0.332151,-0.622828 0,-0.33261 0.239388,-0.524999 0.239389,-0.192392 0.610441,-0.208697 v -0.04565 q -0.08977,-0.02935 -0.185526,-0.07174 -0.09576,-0.04565 -0.16458,-0.104355 -0.0778,-0.06848 -0.125679,-0.159783 -0.04788,-0.09457 -0.04788,-0.231522 0,-0.172826 0.110717,-0.316305 0.113709,-0.14674 0.341128,-0.251087 v -0.04892 q -0.287266,-0.14674 -0.445861,-0.375001 -0.158594,-0.231522 -0.158594,-0.534784 0,-0.456522 0.311204,-0.75 0.314198,-0.2934797 0.801951,-0.2934797 0.134656,0 0.26632,0.029346 0.134656,0.029346 0.272304,0.074995 h 1.029369 v 0.3130447 h -0.694226 v 0.01956 q 0.110717,0.140219 0.16458,0.309784 0.05386,0.169565 0.05386,0.332609 0,0.423914 -0.317189,0.717393 -0.314197,0.293478 -0.733127,0.293478 h -0.362075 q -0.06882,0.02609 -0.143633,0.09457 -0.07481,0.06848 -0.07481,0.185869 0,0.120653 0.06284,0.18587 0.06284,0.06196 0.15261,0.08478 0.08678,0.02609 0.200488,0.03261 0.116701,0.0066 0.239388,0.0098 0.131663,0.0032 0.359082,0.01956 0.230412,0.0163 0.326167,0.01956 0.137648,0.0066 0.275296,0.07174 0.140641,0.06522 0.25435,0.179348 z m -0.807935,-1.907612 q 0,-0.381523 -0.143633,-0.606523 -0.140641,-0.2282611 -0.397983,-0.2282611 -0.140641,0 -0.242381,0.065222 -0.09875,0.06196 -0.161587,0.179349 -0.05985,0.107611 -0.08678,0.260869 -0.02394,0.15 -0.02394,0.309783 0,0.361958 0.143633,0.590218 0.146626,0.228262 0.377037,0.228262 0.257342,0 0.39499,-0.225 0.140641,-0.228262 0.140641,-0.573914 z m 0.574532,2.696744 q 0,-0.182609 -0.0778,-0.300001 -0.0778,-0.117391 -0.236396,-0.159782 -0.08379,-0.01304 -0.344121,-0.02935 -0.260335,-0.0163 -0.604455,-0.0163 -0.323174,0.06848 -0.460823,0.228262 -0.134656,0.163043 -0.134656,0.417392 0,0.114129 0.04489,0.218478 0.04489,0.104355 0.155602,0.192392 0.104732,0.08478 0.281281,0.136956 0.176549,0.05544 0.430899,0.05544 0.439876,0 0.691234,-0.18587 0.25435,-0.182608 0.25435,-0.557609 z m 3.620747,-0.515219 q -0.14064,0.05544 -0.248365,0.08804 -0.104732,0.03588 -0.239388,0.03588 -0.233404,0 -0.374045,-0.11739 -0.137648,-0.120653 -0.176548,-0.348914 h -0.01796 q -0.194502,0.234782 -0.418929,0.358696 -0.221434,0.123913 -0.535631,0.123913 -0.332151,0 -0.547601,-0.221739 -0.212457,-0.22174 -0.212457,-0.580437 0,-0.185869 0.04788,-0.332609 0.04788,-0.146739 0.143633,-0.26413 0.07481,-0.09783 0.197495,-0.172826 0.122686,-0.07827 0.230411,-0.123914 0.134656,-0.05544 0.544608,-0.205435 0.412945,-0.15 0.556578,-0.234783 v -0.322829 q 0,-0.04239 -0.01795,-0.163044 -0.01496,-0.120653 -0.06882,-0.228261 -0.05985,-0.120653 -0.170564,-0.208696 -0.107725,-0.091311 -0.308213,-0.091311 -0.137648,0 -0.257342,0.052178 -0.116702,0.04892 -0.164579,0.104355 0,0.06522 0.02693,0.192392 0.02992,0.127173 0.02992,0.234782 0,0.11413 -0.09575,0.208696 -0.09276,0.09457 -0.260335,0.09457 -0.149617,0 -0.221434,-0.11413 -0.06882,-0.117392 -0.06882,-0.260872 0,-0.15 0.09575,-0.286957 0.09875,-0.136957 0.25435,-0.244564 0.134656,-0.091311 0.326167,-0.1532618 0.19151,-0.065221 0.374044,-0.065221 0.251358,0 0.436884,0.039132 0.188518,0.035874 0.341128,0.159784 0.15261,0.1206528 0.230411,0.3293478 0.08079,0.205436 0.08079,0.531523 0,0.466304 -0.009,0.828262 -0.009,0.358697 -0.009,0.785871 0,0.127175 0.0389,0.202174 0.04189,0.075 0.125679,0.127174 0.04489,0.02935 0.140641,0.03261 0.09875,0.0032 0.200487,0.0032 z M 42.567596,11.25411 q -0.25435,0.08152 -0.445861,0.159784 -0.19151,0.07827 -0.35609,0.195651 -0.149617,0.110871 -0.236396,0.264132 -0.08678,0.15 -0.08678,0.358696 0,0.270653 0.128671,0.397827 0.131664,0.127173 0.332151,0.127173 0.212458,0 0.374045,-0.110869 0.161587,-0.114131 0.272304,-0.267392 z m 3.159925,1.640221 q -0.194503,0.08804 -0.368059,0.146738 -0.173557,0.06196 -0.424914,0.06196 -0.371052,0 -0.523662,-0.202174 -0.149618,-0.205435 -0.149618,-0.577176 V 10.145414 H 43.728629 V 9.8323699 h 0.544609 V 8.8312807 h 0.544608 v 1.0010881 h 0.846836 v 0.3130442 h -0.840851 v 1.796742 q 0,0.202175 0.01197,0.339131 0.01496,0.133696 0.06583,0.234783 0.04788,0.09457 0.143633,0.143479 0.09575,0.04891 0.257342,0.04891 0.07481,0 0.218442,-0.01304 0.146625,-0.0163 0.206472,-0.03913 z m 2.552478,-2.660874 q 0,0.166305 -0.07481,0.29674 -0.07481,0.127174 -0.230411,0.127174 -0.167572,0 -0.257343,-0.09457 -0.08678,-0.09457 -0.08678,-0.208696 0,-0.07174 0.009,-0.130435 0.01197,-0.0587 0.02095,-0.117392 -0.140641,0 -0.329159,0.123913 -0.188518,0.123914 -0.320182,0.352176 v 1.871741 q 0,0.114131 0.0389,0.18587 0.04189,0.07174 0.128671,0.107612 0.07481,0.03261 0.19151,0.04892 0.119695,0.0163 0.206473,0.02283 v 0.215218 H 46.020794 V 12.81934 q 0.06882,-0.0066 0.140641,-0.01304 0.07481,-0.0066 0.128671,-0.02609 0.08379,-0.02935 0.122686,-0.101086 0.04189,-0.075 0.04189,-0.192392 v -1.985873 q 0,-0.101086 -0.04488,-0.198914 -0.04189,-0.09783 -0.119694,-0.156521 -0.05685,-0.03913 -0.134656,-0.05544 -0.0778,-0.01956 -0.167572,-0.02609 V 9.8519386 l 0.981492,-0.071737 0.04189,0.045648 v 0.4532624 h 0.01496 q 0.185526,-0.264132 0.412945,-0.401089 0.227418,-0.1369567 0.415937,-0.1369567 0.188518,0 0.30522,0.1336961 0.119694,0.1336956 0.119694,0.3586976 z m 2.87266,2.044568 q -0.185526,0.384784 -0.496731,0.613045 -0.311205,0.228262 -0.715173,0.228262 -0.35609,0 -0.625401,-0.136957 -0.26632,-0.136957 -0.439876,-0.371741 -0.173557,-0.234782 -0.260335,-0.547826 -0.08379,-0.313045 -0.08379,-0.661958 0,-0.313044 0.08977,-0.613045 0.09276,-0.303261 0.269311,-0.544566 0.170564,-0.231522 0.421922,-0.371739 0.25435,-0.1434789 0.568547,-0.1434789 0.323174,0 0.553586,0.1108699 0.230411,0.1108691 0.374044,0.303261 0.137648,0.182609 0.20348,0.430436 0.06882,0.247825 0.06882,0.538044 v 0.215218 h -1.954007 q 0,0.316304 0.05386,0.573913 0.05685,0.257609 0.176548,0.453262 0.116702,0.189131 0.305221,0.300001 0.188518,0.107612 0.448853,0.107612 0.266319,0 0.45783,-0.133698 0.194503,-0.136957 0.374044,-0.489131 z m -0.661311,-1.226088 q 0,-0.18261 -0.02992,-0.391306 -0.02693,-0.208695 -0.08977,-0.348913 -0.06882,-0.15 -0.188518,-0.244566 -0.119694,-0.094569 -0.308212,-0.094569 -0.314198,0 -0.523662,0.286957 -0.206473,0.283695 -0.224427,0.792392 z m 4.261112,1.98261 H 53.307153 V 12.81933 q 0.06882,-0.0066 0.149618,-0.01304 0.08379,-0.0066 0.137648,-0.02609 0.08379,-0.02935 0.122687,-0.101086 0.04189,-0.075 0.04189,-0.192392 v -1.653264 q 0,-0.342391 -0.149617,-0.52826 -0.146626,-0.185871 -0.359083,-0.185871 -0.158594,0 -0.290258,0.05544 -0.131663,0.05218 -0.233403,0.130436 -0.09875,0.075 -0.158595,0.163042 -0.05685,0.08478 -0.08379,0.136957 v 1.848916 q 0,0.110871 0.04189,0.182609 0.04189,0.07174 0.125679,0.11087 0.06284,0.03261 0.134656,0.04892 0.07481,0.0163 0.15261,0.02283 v 0.215218 h -1.445307 v -0.215218 q 0.06882,-0.0066 0.140641,-0.01304 0.07481,-0.0066 0.128671,-0.02609 0.08379,-0.02935 0.122686,-0.101086 0.04189,-0.075 0.04189,-0.192392 v -1.985873 q 0,-0.11087 -0.04489,-0.202174 -0.04189,-0.09457 -0.119694,-0.153261 -0.05685,-0.03913 -0.134656,-0.05544 -0.0778,-0.01956 -0.167572,-0.02609 V 9.8519386 l 0.981492,-0.071737 0.04189,0.045648 v 0.4532624 h 0.01496 q 0.07182,-0.07827 0.179541,-0.18587 0.107725,-0.11087 0.20348,-0.1793495 0.110717,-0.078266 0.263327,-0.1304343 0.15261,-0.052177 0.344121,-0.052177 0.424914,0 0.628394,0.2902178 0.206472,0.286957 0.206472,0.766305 v 1.672829 q 0,0.114132 0.03591,0.18587 0.03591,0.06848 0.122687,0.107611 0.07182,0.03261 0.122686,0.04565 0.05386,0.01304 0.146626,0.01956 z m 3.593815,-0.0587 -1.029369,0.07174 -0.04489,-0.04565 v -0.3 l -0.02394,-0.0066 q -0.155603,0.189131 -0.386014,0.309783 -0.227419,0.120652 -0.4698,0.120652 -0.251357,0 -0.487753,-0.120652 -0.233404,-0.123913 -0.40696,-0.345652 -0.176549,-0.225001 -0.281281,-0.541306 -0.10174,-0.316304 -0.10174,-0.697827 0,-0.348913 0.110717,-0.661957 0.110717,-0.313044 0.30522,-0.547828 0.182533,-0.2184775 0.44586,-0.3489122 0.26632,-0.1304361 0.541616,-0.1304361 0.206473,0 0.403968,0.058694 0.200488,0.055435 0.344121,0.1434774 V 8.8149762 q 0,-0.1369566 -0.04189,-0.2478264 -0.04189,-0.1141306 -0.116702,-0.1728264 -0.08379,-0.061957 -0.227419,-0.088044 -0.140641,-0.029347 -0.30522,-0.042392 V 8.0617143 l 1.205918,-0.075 0.04489,0.048913 v 4.3369637 q 0,0.11413 0.0389,0.195653 0.04189,0.07827 0.119694,0.133695 0.05685,0.03913 0.16458,0.04892 0.107725,0.0098 0.197495,0.01304 z m -1.080239,-0.564131 v -1.881524 q -0.02394,-0.08478 -0.0778,-0.18261 -0.05386,-0.09783 -0.134655,-0.179347 -0.08678,-0.08153 -0.20348,-0.133696 -0.116702,-0.055437 -0.272305,-0.055437 -0.179541,0 -0.332151,0.101087 -0.149618,0.101086 -0.266319,0.290217 -0.110717,0.182609 -0.176549,0.466305 -0.06284,0.280436 -0.06284,0.622828 0,0.273913 0.04788,0.498914 0.04788,0.221739 0.161587,0.414131 0.104733,0.182608 0.26632,0.293477 0.164579,0.11087 0.389006,0.11087 0.239388,0 0.39499,-0.11413 0.158595,-0.11413 0.26632,-0.251087 z m 3.315528,-0.952175 q 0.122687,0.117391 0.188519,0.270652 0.06583,0.153262 0.06583,0.375001 0,0.44674 -0.308212,0.730436 -0.30522,0.283697 -0.792974,0.283697 -0.257342,0 -0.475784,-0.101087 -0.215449,-0.101086 -0.308212,-0.185871 l -0.05985,0.211957 h -0.224427 l -0.02992,-1.118479 h 0.206472 q 0.02394,0.127174 0.10174,0.296739 0.0778,0.169567 0.188518,0.306523 0.116702,0.143479 0.278289,0.241304 0.164579,0.09783 0.36806,0.09783 0.287265,0 0.442868,-0.140217 0.155602,-0.143478 0.155602,-0.407609 0,-0.136957 -0.05087,-0.234783 -0.04788,-0.101086 -0.143633,-0.176088 -0.09875,-0.075 -0.24238,-0.133695 -0.143633,-0.06196 -0.320182,-0.120652 -0.140641,-0.04565 -0.314197,-0.123915 -0.170564,-0.08153 -0.293251,-0.18913 -0.131663,-0.11413 -0.215449,-0.280434 -0.08379,-0.166305 -0.08379,-0.391306 0,-0.394566 0.269312,-0.668479 0.269311,-0.2739136 0.721157,-0.2739136 0.173556,0 0.353097,0.048918 0.182534,0.048918 0.296243,0.117392 l 0.06882,-0.1695653 h 0.215449 l 0.04489,1.0336969 h -0.206472 q -0.06284,-0.345652 -0.272304,-0.560871 -0.206473,-0.2184783 -0.505708,-0.2184783 -0.245373,0 -0.386014,0.1336963 -0.14064,0.133695 -0.14064,0.322827 0,0.146739 0.04489,0.244565 0.04788,0.09783 0.140641,0.166304 0.08977,0.06522 0.224426,0.123915 0.137648,0.05544 0.338136,0.127173 0.197495,0.06848 0.371052,0.159783 0.176549,0.09131 0.290258,0.202175 z"
       id="text5"
       style="font-size:6.12834px;font-family:Georgia;-inkscape-font-specification:Georgia;fill:#ffffff;stroke-width:1.06623"
       aria-label="egatrends" />
    <path
       fill="#b52d4c"
       d="M 1.4327831,13.244232 H 25.665767 L 25.104003,12.606314 H 2.0713608 Z M 7.357017,7.2435143 H 10.62573 L 10.319134,6.8861482 h 6.562482 l 0.331981,0.3573661 h 3.1408 L 19.460651,6.2475705 H 8.3529608 Z M 2.8882919,11.788394 H 21.222757 l 0.306267,0.332311 h 3.166514 L 24.00619,11.354543 H 3.2967571 Z M 13.81763,10.537612 h 6.306984 l 0.331982,0.357696 h 3.14113 l -0.689678,-0.766161 h -8.681953 z m -9.7036117,0 h 6.3073137 l 0.306267,0.357696 H 13.8684 L 13.204767,10.129147 H 4.522484 Z M 15.017641,9.3372714 h 4.034545 l 0.331981,0.3576953 h 3.1408 L 21.83562,8.9288056 h -6.409513 z m -9.7289959,0 H 9.3489046 L 9.6551714,9.6949667 H 12.821686 L 12.132009,8.9288056 H 5.6974401 Z M 16.217653,8.1118746 h 1.762105 l 0.306267,0.3573661 h 3.14113 L 20.762862,7.7030792 h -4.136413 z m -9.7032815,0 H 8.2764766 L 8.5827433,8.4692407 H 11.723544 L 11.034196,7.7030792 H 6.9228368 Z m 2.6301356,-2.681235 h 6.4348979 l 0.331982,0.3573661 h 3.140799 L 18.362839,5.0221739 H 9.5529726 Z M 10.370233,4.2049131 h 4.136744 l 0.306267,0.3319815 h 3.140799 L 17.264696,3.7964479 h -6.485997 z m 1.200341,-1.2003412 h 1.863975 l 0.306267,0.3319815 h 3.1408 L 16.217653,2.5707215 H 11.97904 Z m 0.842646,-0.893745 h 3.395968 l -0.48528,-0.5360492 h -2.349254 z m 0.842316,-0.8426454 h 1.78749 L 14.20038,0.32366651 Z"
       id="path6"
       style="clip-rule:evenodd;fill-rule:evenodd;stroke-width:0.329673;fill:#e22649;fill-opacity:1" />
  </g>
</svg>
